<?xml version="1.0" standalone="no"?>
<!DOCTYPE svg PUBLIC "-//W3C//DTD SVG 20010904//EN"
 "http://www.w3.org/TR/2001/REC-SVG-20010904/DTD/svg10.dtd">
<svg version="1.0" xmlns="http://www.w3.org/2000/svg"
 width="1200.000000pt" height="1439.000000pt" viewBox="0 0 1200.000000 1439.000000"
 preserveAspectRatio="xMidYMid meet">
<metadata>
Created by potrace 1.16, written by Peter Selinger 2001-2019
</metadata>
<g transform="translate(0.000000,1439.000000) scale(0.100000,-0.100000)"
fill="#000000" stroke="none">
<path d="M5645 14173 c-1045 -69 -2042 -407 -2890 -981 -326 -220 -550 -406
-846 -702 -231 -231 -368 -387 -539 -615 -95 -127 -275 -390 -286 -418 -3 -10
75 -64 250 -175 l256 -162 52 33 c29 19 339 209 687 422 l635 389 55 -31 c31
-17 160 -93 286 -168 127 -75 296 -175 377 -223 l148 -87 -7 -50 c-4 -27 -7
-133 -8 -235 0 -163 3 -195 23 -269 104 -381 450 -709 966 -916 237 -95 509
-163 781 -197 145 -17 588 -17 715 0 534 75 979 282 1280 598 295 309 394 652
299 1032 -91 364 -358 670 -759 872 -477 240 -1099 308 -1766 194 -82 -14
-167 -28 -189 -31 -39 -5 -53 2 -290 154 -369 235 -367 234 -363 238 25 23
1485 844 1495 841 7 -3 680 -393 1495 -867 816 -474 1798 -1045 2183 -1269
385 -224 710 -412 723 -419 21 -11 47 1 277 126 140 76 255 143 255 148 0 17
-192 305 -298 448 -547 731 -1246 1315 -2062 1721 -701 348 -1409 541 -2195
596 -128 9 -620 11 -740 3z"/>
<path d="M844 11033 c-419 -814 -634 -1710 -634 -2642 0 -586 68 -1070 231
-1634 323 -1123 1016 -2154 1944 -2892 333 -265 622 -451 995 -639 526 -266
1035 -436 1620 -540 200 -36 534 -72 720 -78 l85 -3 3 301 2 301 -357 208
c-197 115 -464 270 -593 346 l-235 137 -3 691 c-1 510 1 691 9 691 22 0 135
63 213 118 216 156 368 420 433 752 15 78 18 141 17 350 0 234 -3 266 -27 391
-48 246 -122 467 -237 704 -343 708 -934 1234 -1550 1376 -122 29 -348 36
-466 15 -407 -70 -698 -356 -820 -803 -71 -261 -72 -621 -3 -943 90 -416 293
-834 579 -1195 l60 -75 -2 -504 -3 -504 -702 401 -703 402 0 2541 0 2541 -244
162 c-134 88 -248 161 -253 161 -5 0 -40 -62 -79 -137z"/>
<path d="M10828 11008 l-258 -141 0 -846 0 -846 -88 -46 c-571 -300 -845 -440
-855 -436 -7 2 -71 53 -142 112 -157 131 -239 172 -415 211 -103 22 -318 22
-438 0 -497 -91 -1005 -466 -1365 -1007 -239 -360 -408 -786 -473 -1194 -22
-139 -30 -460 -14 -594 66 -571 384 -943 872 -1021 97 -16 355 -8 453 14 494
110 960 457 1305 970 129 193 191 330 324 716 l57 165 342 198 c188 109 366
211 395 228 l52 31 0 -874 -1 -873 -547 -319 c-301 -175 -821 -479 -1157 -675
-335 -196 -1084 -633 -1662 -971 l-1053 -615 0 -298 0 -298 53 5 c28 3 106 8
172 11 397 20 895 111 1314 241 1954 606 3425 2160 3920 4141 67 266 124 609
153 918 19 207 16 805 -5 1015 -63 613 -193 1133 -419 1680 -61 147 -225 491
-249 522 -13 16 -35 6 -271 -124z"/>
<path d="M4385 2089 c-55 -5 -125 -12 -155 -16 l-55 -8 -3 -917 -2 -916 37 -6
c21 -3 165 -9 319 -12 301 -7 414 1 564 37 320 78 490 297 459 591 -19 172
-143 314 -334 382 -18 7 -17 9 12 21 93 39 180 122 225 213 26 52 33 80 36
146 14 267 -176 442 -528 485 -97 13 -427 12 -575 0z m517 -319 c56 -14 125
-70 144 -117 34 -79 4 -181 -67 -232 -60 -44 -126 -61 -261 -68 l-118 -6 0
216 0 216 48 4 c73 7 202 0 254 -13z m25 -755 c64 -22 127 -74 153 -126 26
-50 27 -149 1 -204 -49 -108 -158 -155 -357 -155 l-124 0 0 256 0 256 138 -4
c97 -3 152 -10 189 -23z"/>
<path d="M9890 2093 c-204 -19 -252 -24 -265 -29 -13 -5 -15 -117 -15 -919 l0
-913 38 -6 c82 -14 599 -19 702 -6 241 28 383 84 497 196 87 86 130 168 146
280 22 153 -19 290 -119 394 -54 56 -173 130 -210 130 -28 0 -13 16 42 44 166
87 255 258 225 432 -38 218 -222 356 -525 394 -73 9 -431 12 -516 3z m474
-329 c68 -23 121 -79 134 -141 37 -170 -106 -273 -380 -273 l-78 0 0 214 0
215 48 4 c84 8 226 -2 276 -19z m14 -752 c119 -46 166 -112 166 -227 0 -112
-39 -170 -149 -222 -56 -26 -71 -28 -207 -31 l-148 -4 0 257 0 257 143 -4
c113 -4 153 -9 195 -26z"/>
<path d="M1100 1155 l0 -935 215 0 215 0 0 375 0 375 335 0 335 0 0 175 0 175
-335 0 -335 0 0 205 0 205 355 0 355 0 0 180 0 180 -570 0 -570 0 0 -935z"/>
<path d="M2797 2083 c-6 -11 -567 -1847 -567 -1856 0 -4 100 -6 223 -5 l222 3
65 237 65 238 262 0 261 0 22 -72 c12 -40 44 -148 72 -240 l51 -168 230 0 229
0 -4 22 c-3 13 -132 434 -288 936 l-284 912 -277 0 c-153 0 -280 -3 -282 -7z
m402 -836 c33 -114 61 -212 61 -217 0 -6 -73 -10 -196 -10 -181 0 -195 1 -190
18 39 134 113 409 141 527 20 83 38 157 42 165 3 8 22 -50 43 -130 21 -80 65
-238 99 -353z"/>
<path d="M6390 1155 l0 -935 585 0 585 0 0 185 0 185 -370 0 -370 0 0 750 0
750 -215 0 -215 0 0 -935z"/>
<path d="M8236 2073 c-3 -10 -129 -424 -281 -920 -151 -496 -275 -909 -275
-918 0 -13 28 -15 219 -15 l218 0 53 187 c28 104 58 212 67 241 l15 52 261 -2
261 -3 71 -235 71 -235 232 -3 c128 -1 232 -1 232 0 0 2 -130 422 -289 933
l-289 930 -280 3 c-261 2 -281 1 -286 -15z m404 -813 c34 -118 65 -221 67
-227 4 -10 -39 -13 -194 -13 l-200 0 62 223 c35 122 78 288 96 369 l34 147 36
-142 c20 -78 64 -239 99 -357z"/>
</g>
</svg>
